<svg width="788" height="55" viewBox="0 0 788 55" fill="none" xmlns="http://www.w3.org/2000/svg">
<path d="M49.3062 27.2652C49.3062 32.5515 48.1908 37.2316 45.9598 41.3055C43.7532 45.3551 40.5886 48.4833 36.4662 50.69C32.3439 52.8967 27.591 54 22.2077 54H0.12872V1.83982H21.7348C40.1158 1.83982 49.3062 10.3149 49.3062 27.2652ZM32.6106 27.4107C32.6106 24.8645 32.0893 22.5729 31.0465 20.536C30.0281 18.4991 28.561 16.9229 26.6453 15.8074C24.7296 14.6919 22.4744 14.1342 19.8797 14.1342H15.8422V41.7056H20.2435C24.0021 41.7056 26.9969 40.4204 29.2278 37.85C31.483 35.2553 32.6106 31.7755 32.6106 27.4107ZM106.268 27.7744C106.268 33.0123 105.14 37.7045 102.885 41.8511C100.63 45.9735 97.4774 49.1865 93.4278 51.4902C89.3782 53.7696 84.8435 54.9093 79.8239 54.9093C74.9256 54.9093 70.4637 53.806 66.4383 51.5993C62.4372 49.3684 59.3212 46.2524 57.0903 42.2512C54.8593 38.2259 53.7439 33.6791 53.7439 28.611C53.7439 23.3004 54.8714 18.5233 57.1266 14.2797C59.3818 10.0361 62.5463 6.76243 66.6202 4.45875C70.6941 2.13082 75.3257 0.966851 80.515 0.966851C85.5104 0.966851 89.9723 2.08232 93.9006 4.31325C97.8533 6.51993 100.897 9.68446 103.03 13.8068C105.189 17.905 106.268 22.5608 106.268 27.7744ZM89.6085 28.2109C89.6085 23.9188 88.784 20.536 87.1351 18.0626C85.4861 15.5892 83.231 14.3524 80.3695 14.3524C77.2414 14.3524 74.8043 15.5407 73.0584 17.9171C71.3124 20.2935 70.4395 23.652 70.4395 27.9927C70.4395 32.2363 71.3003 35.5463 73.022 37.9227C74.768 40.2992 77.1323 41.4874 80.1149 41.4874C81.9336 41.4874 83.5705 40.9539 85.0254 39.8869C86.4804 38.82 87.608 37.2923 88.4082 35.3038C89.2084 33.3154 89.6085 30.9511 89.6085 28.2109ZM159.374 50.5809C157.409 51.6963 154.475 52.7027 150.571 53.5999C146.667 54.4729 142.945 54.9093 139.404 54.9093C130.262 54.9093 123.206 52.6299 118.235 48.0711C113.264 43.4879 110.778 37.074 110.778 28.8293C110.778 23.3004 112.027 18.3899 114.525 14.0978C117.047 9.80571 120.587 6.54418 125.146 4.31325C129.705 2.08232 135.076 0.966851 141.259 0.966851C145.794 0.966851 150.632 1.60946 155.773 2.89467V16.6076C153.372 15.5164 151.068 14.7647 148.862 14.3524C146.655 13.916 144.242 13.6977 141.623 13.6977C137.307 13.6977 133.863 14.9951 131.293 17.5897C128.747 20.1844 127.474 23.749 127.474 28.2837C127.474 32.6243 128.541 36.0192 130.675 38.4683C132.833 40.9175 135.84 42.1421 139.695 42.1421C141.49 42.1421 142.811 42.0451 143.66 41.8511V34.3945H133.657V22.5002H159.374V50.5809ZM167.885 54V1.83982H200.367V14.1342H183.599V21.7363H199.349V34.0307H183.599V41.7056H201.567V54H167.885ZM254.673 50.5809C252.709 51.6963 249.775 52.7027 245.871 53.5999C241.967 54.4729 238.244 54.9093 234.704 54.9093C225.562 54.9093 218.506 52.6299 213.534 48.0711C208.563 43.4879 206.078 37.074 206.078 28.8293C206.078 23.3004 207.327 18.3899 209.824 14.0978C212.346 9.80571 215.887 6.54418 220.445 4.31325C225.004 2.08232 230.376 0.966851 236.559 0.966851C241.094 0.966851 245.931 1.60946 251.072 2.89467V16.6076C248.672 15.5164 246.368 14.7647 244.161 14.3524C241.955 13.916 239.542 13.6977 236.923 13.6977C232.606 13.6977 229.163 14.9951 226.593 17.5897C224.046 20.1844 222.773 23.749 222.773 28.2837C222.773 32.6243 223.84 36.0192 225.974 38.4683C228.132 40.9175 231.139 42.1421 234.995 42.1421C236.789 42.1421 238.111 42.0451 238.96 41.8511V34.3945H228.957V22.5002H254.673V50.5809ZM295.885 54L293.593 44.3973H278.025L275.552 54H258.565L276.534 1.83982H296.03L312.944 54H295.885ZM285.991 13.1885H285.627C285.579 13.7705 285.409 14.7283 285.118 16.062C284.827 17.3957 283.36 23.1186 280.717 33.2305H290.683L287.046 19.0447C286.537 16.9592 286.185 15.0072 285.991 13.1885ZM346.117 54L342.225 42.7605C341.474 40.5538 340.491 38.82 339.279 37.559C338.091 36.298 336.793 35.6676 335.387 35.6676H334.769V54H319.055V1.83982H339.934C347.233 1.83982 352.616 3.04016 356.084 5.44084C359.576 7.81727 361.322 11.394 361.322 16.1711C361.322 19.76 360.303 22.7669 358.266 25.1919C356.253 27.6168 353.247 29.3749 349.245 30.4661V30.6116C351.452 31.2906 353.283 32.3939 354.738 33.9216C356.217 35.4493 357.539 37.7166 358.703 40.7235L363.831 54H346.117ZM344.626 18.3899C344.626 16.644 344.092 15.2618 343.025 14.2433C341.959 13.2249 340.285 12.7156 338.006 12.7156H334.769V24.6463H337.606C339.715 24.6463 341.413 24.0522 342.698 22.8639C343.983 21.6757 344.626 20.1844 344.626 18.3899ZM419.083 27.2652C419.083 32.5515 417.968 37.2316 415.737 41.3055C413.53 45.3551 410.366 48.4833 406.243 50.69C402.121 52.8967 397.368 54 391.985 54H369.906V1.83982H391.512C409.893 1.83982 419.083 10.3149 419.083 27.2652ZM402.388 27.4107C402.388 24.8645 401.866 22.5729 400.824 20.536C399.805 18.4991 398.338 16.9229 396.422 15.8074C394.507 14.6919 392.252 14.1342 389.657 14.1342H385.619V41.7056H390.021C393.779 41.7056 396.774 40.4204 399.005 37.85C401.26 35.2553 402.388 31.7755 402.388 27.4107ZM426.431 54V1.83982H458.913V14.1342H442.144V21.7363H457.894V34.0307H442.144V41.7056H460.113V54H426.431ZM503.98 54L485.575 28.8293C484.12 26.8408 482.932 25.0464 482.01 23.4459H481.865C482.01 26.0163 482.083 28.902 482.083 32.1029V54H467.533V1.83982H482.374L500.015 25.7739C500.233 26.0891 500.5 26.465 500.815 26.9014C501.131 27.3379 501.446 27.7865 501.761 28.2473C502.076 28.708 502.367 29.1566 502.634 29.5931C502.925 30.0296 503.143 30.4176 503.289 30.7571H503.434C503.289 29.6901 503.216 27.8472 503.216 25.2282V1.83982H517.766V54H503.98ZM528.132 39.7051V29.2657H548.029V39.7051H528.132ZM594.624 38.2137C594.624 41.6814 593.69 44.7004 591.823 47.2708C589.98 49.8413 587.385 51.7569 584.039 53.0179C580.693 54.2789 576.667 54.9093 571.963 54.9093C566.507 54.9093 561.511 53.9879 556.977 52.1449V37.85C559.159 39.4504 561.572 40.7478 564.215 41.742C566.858 42.712 569.32 43.197 571.599 43.197C573.321 43.197 574.655 42.8938 575.6 42.2876C576.546 41.6571 577.019 40.7478 577.019 39.5596C577.019 38.7108 576.776 37.9712 576.291 37.3408C575.831 36.686 575.115 36.0798 574.145 35.5221C573.2 34.9643 571.429 34.2005 568.835 33.2305C560.444 30.0053 556.249 24.7918 556.249 17.5897C556.249 12.5459 558.165 8.5205 561.996 5.51359C565.828 2.48243 570.969 0.966851 577.419 0.966851C579.238 0.966851 580.911 1.0396 582.439 1.18509C583.966 1.33059 585.348 1.51246 586.585 1.7307C587.846 1.94895 589.604 2.36118 591.859 2.96742V16.2439C587.47 13.8432 583.154 12.6429 578.91 12.6429C577.164 12.6429 575.758 12.9702 574.691 13.625C573.624 14.2797 573.09 15.1769 573.09 16.3166C573.09 17.4079 573.515 18.3172 574.364 19.0447C575.236 19.7479 577.043 20.6694 579.783 21.8091C585.191 23.9915 589.01 26.3801 591.241 28.9748C593.496 31.5694 594.624 34.6491 594.624 38.2137ZM627.397 14.1342V54H611.61V14.1342H597.024V1.83982H642.164V14.1342H627.397ZM681.157 54L678.866 44.3973H663.298L660.824 54H643.838L661.806 1.83982H681.303L698.217 54H681.157ZM671.264 13.1885H670.9C670.851 13.7705 670.682 14.7283 670.391 16.062C670.1 17.3957 668.633 23.1186 665.989 33.2305H675.956L672.318 19.0447C671.809 16.9592 671.458 15.0072 671.264 13.1885ZM730.699 14.1342V54H714.912V14.1342H700.326V1.83982H745.466V14.1342H730.699ZM787.987 38.2137C787.987 41.6814 787.054 44.7004 785.187 47.2708C783.344 49.8413 780.749 51.7569 777.403 53.0179C774.056 54.2789 770.031 54.9093 765.326 54.9093C759.87 54.9093 754.875 53.9879 750.34 52.1449V37.85C752.523 39.4504 754.936 40.7478 757.579 41.742C760.222 42.712 762.683 43.197 764.963 43.197C766.684 43.197 768.018 42.8938 768.964 42.2876C769.91 41.6571 770.382 40.7478 770.382 39.5596C770.382 38.7108 770.14 37.9712 769.655 37.3408C769.194 36.686 768.479 36.0798 767.509 35.5221C766.563 34.9643 764.793 34.2005 762.198 33.2305C753.808 30.0053 749.613 24.7918 749.613 17.5897C749.613 12.5459 751.529 8.5205 755.36 5.51359C759.191 2.48243 764.332 0.966851 770.783 0.966851C772.601 0.966851 774.274 1.0396 775.802 1.18509C777.33 1.33059 778.712 1.51246 779.949 1.7307C781.21 1.94895 782.968 2.36118 785.223 2.96742V16.2439C780.834 13.8432 776.518 12.6429 772.274 12.6429C770.528 12.6429 769.122 12.9702 768.055 13.625C766.988 14.2797 766.454 15.1769 766.454 16.3166C766.454 17.4079 766.878 18.3172 767.727 19.0447C768.6 19.7479 770.407 20.6694 773.147 21.8091C778.554 23.9915 782.374 26.3801 784.605 28.9748C786.86 31.5694 787.987 34.6491 787.987 38.2137Z" fill="#9CA3AF"/>
</svg>
