<svg width="466" height="45" viewBox="0 0 466 45" fill="none" xmlns="http://www.w3.org/2000/svg">
<path d="M40.9431 21.8746C40.9431 26.2495 40.0199 30.1227 38.1737 33.4942C36.3474 36.8456 33.7285 39.4344 30.3169 41.2607C26.9053 43.0869 22.9719 44 18.5167 44H0.244458V0.832961H18.1254C33.3372 0.832961 40.9431 7.84685 40.9431 21.8746ZM27.126 21.995C27.126 19.8879 26.6946 17.9914 25.8316 16.3057C24.9887 14.6199 23.7746 13.3155 22.1892 12.3923C20.6038 11.4692 18.7375 11.0076 16.5901 11.0076H13.2488V33.8253H16.8912C20.0018 33.8253 22.4802 32.7617 24.3265 30.6345C26.1928 28.4872 27.126 25.6073 27.126 21.995ZM88.0837 22.2961C88.0837 26.6308 87.1505 30.5141 85.2841 33.9458C83.4178 37.3574 80.8089 40.0164 77.4575 41.9229C74.1061 43.8094 70.3533 44.7526 66.1991 44.7526C62.1453 44.7526 58.4527 43.8395 55.1214 42.0132C51.8101 40.1669 49.2313 37.5882 47.385 34.2769C45.5387 30.9455 44.6156 27.1827 44.6156 22.9884C44.6156 18.5935 45.5488 14.64 47.4151 11.128C49.2815 7.61607 51.9004 4.90684 55.2719 3.00034C58.6434 1.07378 62.4764 0.1105 66.7711 0.1105C70.9051 0.1105 74.5977 1.03364 77.8488 2.87993C81.1199 4.70615 83.6385 7.32507 85.4045 10.7367C87.1906 14.1282 88.0837 17.9814 88.0837 22.2961ZM74.2967 22.6573C74.2967 19.1052 73.6144 16.3057 72.2497 14.2587C70.8851 12.2117 69.0187 11.1882 66.6507 11.1882C64.0618 11.1882 62.045 12.1716 60.6 14.1383C59.1551 16.105 58.4327 18.8844 58.4327 22.4767C58.4327 25.9886 59.1451 28.728 60.5699 30.6947C62.0149 32.6614 63.9715 33.6447 66.4399 33.6447C67.9451 33.6447 69.2997 33.2032 70.5038 32.3202C71.7079 31.4372 72.6411 30.1729 73.3033 28.5273C73.9656 26.8817 74.2967 24.925 74.2967 22.6573ZM132.033 41.1704C130.408 42.0935 127.98 42.9263 124.749 43.6689C121.518 44.3913 118.437 44.7526 115.507 44.7526C107.941 44.7526 102.101 42.8661 97.9874 39.0933C93.8734 35.3004 91.8164 29.9923 91.8164 23.169C91.8164 18.5935 92.8499 14.5296 94.9169 10.9775C97.004 7.42542 99.934 4.72622 103.707 2.87993C107.48 1.03364 111.925 0.1105 117.042 0.1105C120.795 0.1105 124.799 0.642311 129.053 1.70593V13.0546C127.066 12.1515 125.16 11.5294 123.334 11.1882C121.508 10.827 119.511 10.6464 117.343 10.6464C113.771 10.6464 110.921 11.72 108.794 13.8674C106.687 16.0147 105.633 18.9647 105.633 22.7175C105.633 26.3097 106.516 29.1193 108.282 31.1462C110.069 33.1731 112.557 34.1866 115.748 34.1866C117.233 34.1866 118.327 34.1063 119.029 33.9458V27.7747H110.751V17.9312H132.033V41.1704ZM139.077 44V0.832961H165.959V11.0076H152.082V17.299H165.116V27.4737H152.082V33.8253H166.952V44H139.077ZM201.028 44V27.8951H186.098V44H173.093V0.832961H186.098V16.8174H201.028V0.832961H214.033V44H201.028ZM263.642 22.2961C263.642 26.6308 262.708 30.5141 260.842 33.9458C258.976 37.3574 256.367 40.0164 253.015 41.9229C249.664 43.8094 245.911 44.7526 241.757 44.7526C237.703 44.7526 234.011 43.8395 230.679 42.0132C227.368 40.1669 224.789 37.5882 222.943 34.2769C221.097 30.9455 220.174 27.1827 220.174 22.9884C220.174 18.5935 221.107 14.64 222.973 11.128C224.839 7.61607 227.458 4.90684 230.83 3.00034C234.201 1.07378 238.034 0.1105 242.329 0.1105C246.463 0.1105 250.156 1.03364 253.407 2.87993C256.678 4.70615 259.197 7.32507 260.963 10.7367C262.749 14.1282 263.642 17.9814 263.642 22.2961ZM249.855 22.6573C249.855 19.1052 249.172 16.3057 247.808 14.2587C246.443 12.2117 244.577 11.1882 242.209 11.1882C239.62 11.1882 237.603 12.1716 236.158 14.1383C234.713 16.105 233.991 18.8844 233.991 22.4767C233.991 25.9886 234.703 28.728 236.128 30.6947C237.573 32.6614 239.53 33.6447 241.998 33.6447C243.503 33.6447 244.858 33.2032 246.062 32.3202C247.266 31.4372 248.199 30.1729 248.861 28.5273C249.524 26.8817 249.855 24.925 249.855 22.6573ZM307.411 24.2828C307.411 31.2064 305.825 36.354 302.655 39.7254C299.504 43.0769 294.637 44.7526 288.055 44.7526C281.914 44.7526 277.248 43.0769 274.057 39.7254C270.886 36.354 269.301 31.2867 269.301 24.5237V0.832961H282.365V25.0053C282.365 27.7747 282.877 29.912 283.901 31.4171C284.944 32.9022 286.429 33.6447 288.356 33.6447C290.302 33.6447 291.777 32.9423 292.781 31.5375C293.804 30.1328 294.316 28.0557 294.316 25.3063V0.832961H307.411V24.2828ZM345.4 30.9355C345.4 33.8053 344.628 36.3038 343.082 38.431C341.557 40.5583 339.41 42.1437 336.64 43.1872C333.871 44.2308 330.54 44.7526 326.646 44.7526C322.131 44.7526 317.997 43.99 314.244 42.4648V30.6345C316.05 31.959 318.047 33.0326 320.234 33.8554C322.422 34.6582 324.459 35.0595 326.345 35.0595C327.77 35.0595 328.874 34.8087 329.657 34.307C330.439 33.7852 330.831 33.0326 330.831 32.0493C330.831 31.3469 330.63 30.7348 330.228 30.213C329.847 29.6712 329.255 29.1695 328.452 28.7079C327.67 28.2463 326.205 27.6142 324.057 26.8115C317.114 24.1424 313.642 19.8277 313.642 13.8674C313.642 9.69314 315.227 6.36179 318.398 3.87332C321.569 1.36477 325.823 0.1105 331.162 0.1105C332.667 0.1105 334.052 0.170705 335.316 0.291115C336.58 0.411525 337.724 0.562038 338.748 0.742653C339.791 0.923268 341.246 1.26443 343.112 1.76614V12.7536C339.48 10.7668 335.908 9.77341 332.396 9.77341C330.951 9.77341 329.787 10.0443 328.904 10.5862C328.021 11.128 327.579 11.8706 327.579 12.8138C327.579 13.7168 327.931 14.4694 328.633 15.0715C329.356 15.6534 330.851 16.416 333.118 17.3593C337.594 19.1654 340.754 21.1421 342.601 23.2895C344.467 25.4368 345.4 27.9854 345.4 30.9355ZM350.698 44V0.832961H377.58V11.0076H363.702V17.299H376.737V27.4737H363.702V33.8253H378.573V44H350.698ZM397.478 38.6417C397.478 40.468 396.835 41.943 395.551 43.0668C394.267 44.1906 392.491 44.7526 390.223 44.7526C388.156 44.7526 386.46 44.1706 385.135 43.0066C383.831 41.8226 383.179 40.3676 383.179 38.6417C383.179 36.8757 383.821 35.4509 385.105 34.3672C386.41 33.2634 388.156 32.7115 390.343 32.7115C392.47 32.7115 394.186 33.2634 395.491 34.3672C396.815 35.4509 397.478 36.8757 397.478 38.6417ZM427.971 25.5772C427.971 38.3608 421.76 44.7526 409.338 44.7526C408.335 44.7526 407.13 44.6322 405.726 44.3913C404.321 44.1505 402.896 43.7893 401.451 43.3076V31.2967C402.475 31.9991 403.608 32.5711 404.853 33.0126C406.117 33.434 407.161 33.6447 407.983 33.6447C410.311 33.6447 412.047 32.9323 413.191 31.5074C414.355 30.0625 414.937 27.8349 414.937 24.8247V0.832961H427.971V25.5772ZM465.991 30.9355C465.991 33.8053 465.218 36.3038 463.673 38.431C462.148 40.5583 460.001 42.1437 457.231 43.1872C454.462 44.2308 451.13 44.7526 447.237 44.7526C442.722 44.7526 438.588 43.99 434.835 42.4648V30.6345C436.641 31.959 438.638 33.0326 440.825 33.8554C443.013 34.6582 445.05 35.0595 446.936 35.0595C448.361 35.0595 449.465 34.8087 450.247 34.307C451.03 33.7852 451.421 33.0326 451.421 32.0493C451.421 31.3469 451.221 30.7348 450.819 30.213C450.438 29.6712 449.846 29.1695 449.043 28.7079C448.261 28.2463 446.796 27.6142 444.648 26.8115C437.705 24.1424 434.233 19.8277 434.233 13.8674C434.233 9.69314 435.818 6.36179 438.989 3.87332C442.16 1.36477 446.414 0.1105 451.752 0.1105C453.258 0.1105 454.642 0.170705 455.907 0.291115C457.171 0.411525 458.315 0.562038 459.338 0.742653C460.382 0.923268 461.837 1.26443 463.703 1.76614V12.7536C460.071 10.7668 456.499 9.77341 452.987 9.77341C451.542 9.77341 450.378 10.0443 449.495 10.5862C448.612 11.128 448.17 11.8706 448.17 12.8138C448.17 13.7168 448.521 14.4694 449.224 15.0715C449.946 15.6534 451.441 16.416 453.709 17.3593C458.184 19.1654 461.345 21.1421 463.191 23.2895C465.058 25.4368 465.991 27.9854 465.991 30.9355Z" fill="#9CA3AF"/>
</svg>
