<svg width="429" height="45" viewBox="0 0 429 45" fill="none" xmlns="http://www.w3.org/2000/svg">
<path d="M40.9431 21.8746C40.9431 26.2495 40.0199 30.1227 38.1737 33.4942C36.3474 36.8456 33.7285 39.4344 30.3169 41.2607C26.9053 43.0869 22.9719 44 18.5167 44H0.244458V0.832961H18.1254C33.3372 0.832961 40.9431 7.84685 40.9431 21.8746ZM27.126 21.995C27.126 19.8879 26.6946 17.9914 25.8316 16.3057C24.9887 14.6199 23.7746 13.3155 22.1892 12.3923C20.6038 11.4692 18.7375 11.0076 16.5901 11.0076H13.2488V33.8253H16.8912C20.0018 33.8253 22.4802 32.7617 24.3265 30.6345C26.1928 28.4872 27.126 25.6073 27.126 21.995ZM88.0837 22.2961C88.0837 26.6308 87.1505 30.5141 85.2841 33.9458C83.4178 37.3574 80.8089 40.0164 77.4575 41.9229C74.1061 43.8094 70.3533 44.7526 66.1991 44.7526C62.1453 44.7526 58.4527 43.8395 55.1214 42.0132C51.8101 40.1669 49.2313 37.5882 47.385 34.2769C45.5387 30.9455 44.6156 27.1827 44.6156 22.9884C44.6156 18.5935 45.5488 14.64 47.4151 11.128C49.2815 7.61607 51.9004 4.90684 55.2719 3.00034C58.6434 1.07378 62.4764 0.1105 66.7711 0.1105C70.9051 0.1105 74.5977 1.03364 77.8488 2.87993C81.1199 4.70615 83.6385 7.32507 85.4045 10.7367C87.1906 14.1282 88.0837 17.9814 88.0837 22.2961ZM74.2967 22.6573C74.2967 19.1052 73.6144 16.3057 72.2497 14.2587C70.8851 12.2117 69.0187 11.1882 66.6507 11.1882C64.0618 11.1882 62.045 12.1716 60.6 14.1383C59.1551 16.105 58.4327 18.8844 58.4327 22.4767C58.4327 25.9886 59.1451 28.728 60.5699 30.6947C62.0149 32.6614 63.9715 33.6447 66.4399 33.6447C67.9451 33.6447 69.2997 33.2032 70.5038 32.3202C71.7079 31.4372 72.6411 30.1729 73.3033 28.5273C73.9656 26.8817 74.2967 24.925 74.2967 22.6573ZM132.033 41.1704C130.408 42.0935 127.98 42.9263 124.749 43.6689C121.518 44.3913 118.437 44.7526 115.507 44.7526C107.941 44.7526 102.101 42.8661 97.9874 39.0933C93.8734 35.3004 91.8164 29.9923 91.8164 23.169C91.8164 18.5935 92.8499 14.5296 94.9169 10.9775C97.004 7.42542 99.934 4.72622 103.707 2.87993C107.48 1.03364 111.925 0.1105 117.042 0.1105C120.795 0.1105 124.799 0.642311 129.053 1.70593V13.0546C127.066 12.1515 125.16 11.5294 123.334 11.1882C121.508 10.827 119.511 10.6464 117.343 10.6464C113.771 10.6464 110.921 11.72 108.794 13.8674C106.687 16.0147 105.633 18.9647 105.633 22.7175C105.633 26.3097 106.516 29.1193 108.282 31.1462C110.069 33.1731 112.557 34.1866 115.748 34.1866C117.233 34.1866 118.327 34.1063 119.029 33.9458V27.7747H110.751V17.9312H132.033V41.1704ZM139.077 44V0.832961H165.959V11.0076H152.082V17.299H165.116V27.4737H152.082V33.8253H166.952V44H139.077ZM210.902 41.1704C209.276 42.0935 206.848 42.9263 203.617 43.6689C200.386 44.3913 197.306 44.7526 194.376 44.7526C186.81 44.7526 180.97 42.8661 176.856 39.0933C172.742 35.3004 170.685 29.9923 170.685 23.169C170.685 18.5935 171.719 14.5296 173.786 10.9775C175.873 7.42542 178.803 4.72622 182.576 2.87993C186.348 1.03364 190.794 0.1105 195.911 0.1105C199.664 0.1105 203.667 0.642311 207.922 1.70593V13.0546C205.935 12.1515 204.029 11.5294 202.202 11.1882C200.376 10.827 198.379 10.6464 196.212 10.6464C192.64 10.6464 189.79 11.72 187.663 13.8674C185.556 16.0147 184.502 18.9647 184.502 22.7175C184.502 26.3097 185.385 29.1193 187.151 31.1462C188.937 33.1731 191.426 34.1866 194.617 34.1866C196.102 34.1866 197.195 34.1063 197.898 33.9458V27.7747H189.62V17.9312H210.902V41.1704ZM245.008 44L243.112 36.0529H230.228L228.181 44H214.123L228.994 0.832961H245.129L259.126 44H245.008ZM236.82 10.225H236.519C236.479 10.7066 236.339 11.4993 236.098 12.6031C235.857 13.7068 234.643 18.4429 232.455 26.8115H240.704L237.693 15.0715C237.272 13.3456 236.981 11.7301 236.82 10.225ZM286.58 44L283.359 34.6983C282.737 32.8721 281.924 31.4372 280.921 30.3937C279.937 29.3501 278.864 28.8283 277.7 28.8283H277.188V44H264.184V0.832961H281.462C287.503 0.832961 291.958 1.82634 294.828 3.81311C297.718 5.77981 299.163 8.73989 299.163 12.6934C299.163 15.6635 298.32 18.152 296.634 20.1588C294.968 22.1656 292.48 23.6206 289.169 24.5237V24.6441C290.995 25.206 292.51 26.1191 293.714 27.3834C294.938 28.6477 296.032 30.5241 296.995 33.0126L301.24 44H286.58ZM285.346 14.5296C285.346 13.0847 284.904 11.9408 284.021 11.0979C283.138 10.2551 281.753 9.83362 279.867 9.83362H277.188V19.7073H279.536C281.282 19.7073 282.687 19.2156 283.75 18.2322C284.814 17.2489 285.346 16.0147 285.346 14.5296ZM346.965 21.8746C346.965 26.2495 346.042 30.1227 344.196 33.4942C342.37 36.8456 339.751 39.4344 336.339 41.2607C332.928 43.0869 328.994 44 324.539 44H306.267V0.832961H324.148C339.36 0.832961 346.965 7.84685 346.965 21.8746ZM333.148 21.995C333.148 19.8879 332.717 17.9914 331.854 16.3057C331.011 14.6199 329.797 13.3155 328.212 12.3923C326.626 11.4692 324.76 11.0076 322.613 11.0076H319.271V33.8253H322.914C326.024 33.8253 328.503 32.7617 330.349 30.6345C332.215 28.4872 333.148 25.6073 333.148 21.995ZM353.046 44V0.832961H379.928V11.0076H366.051V17.299H379.085V27.4737H366.051V33.8253H380.921V44H353.046ZM417.225 44L401.993 23.169C400.789 21.5234 399.805 20.0384 399.043 18.7139H398.922C399.043 20.8411 399.103 23.2292 399.103 25.8783V44H387.062V0.832961H399.344L413.944 20.6404C414.124 20.9013 414.345 21.2124 414.606 21.5736C414.867 21.9348 415.128 22.3061 415.389 22.6874C415.649 23.0687 415.89 23.44 416.111 23.8012C416.352 24.1624 416.532 24.4835 416.653 24.7645H416.773C416.653 23.8815 416.593 22.3563 416.593 20.1889V0.832961H428.634V44H417.225Z" fill="#DEAC4A"/>
</svg>
